<svg xmlns="http://www.w3.org/2000/svg" viewBox="0 0 64 64" role="img" aria-label="CertifyTube CT mark">
  <defs>
    <linearGradient id="ctGrad" x1="8" y1="8" x2="56" y2="56" gradientUnits="userSpaceOnUse">
      <stop offset="0" stop-color="#ff4a63"/>
      <stop offset="1" stop-color="#c9002b"/>
    </linearGradient>
  </defs>
  <rect x="6" y="6" width="52" height="52" rx="14" fill="url(#ctGrad)"/>
  <path d="M23 18h19a2 2 0 1 1 0 4H26v20h16a2 2 0 1 1 0 4H23a5 5 0 0 1-5-5V23a5 5 0 0 1 5-5Z" fill="#fff"/>
  <path d="M33 18h14a2 2 0 1 1 0 4h-5v22a2 2 0 1 1-4 0V22h-5a2 2 0 1 1 0-4Z" fill="#fff"/>
</svg>
